<svg width="288" height="74" viewBox="0 0 288 74" fill="none" xmlns="http://www.w3.org/2000/svg">
<rect x="24.4702" width="25.6086" height="73.9803" rx="12.8043" fill="#2864FF"/>
<rect x="73.9805" y="24.4702" width="25.0395" height="73.9803" rx="12.5197" transform="rotate(90 73.9805 24.4702)" fill="#2864FF"/>
<path d="M23.0081 23.86C29.5975 24.7991 33.8716 29.6044 36.8801 34.7723C38.5451 37.6814 39.9492 40.7807 42.131 43.261C43.7502 45.112 45.6471 46.6659 47.7297 48.0432C49.1199 48.9546 50.5923 49.7648 52.4376 50.027C51.429 50.1738 50.4464 50.1233 49.5286 49.9522C46.7964 49.3892 44.456 48.1636 42.3197 46.6852C40.1944 45.1999 38.4601 43.191 37.113 40.9499C35.7964 38.7758 34.6878 36.4147 33.3968 34.262C30.8167 29.9447 27.6852 26.1247 23.0081 23.86Z" fill="white"/>
<path d="M38.6527 34.4672C38.6527 34.4672 30.8365 27.5891 34.4757 18.3579C37.4755 10.7487 41.7487 9.28656 41.5347 3.23779C44.6305 5.97245 50.2504 13.0877 47.6541 21.5099C45.1142 29.7498 38.6527 34.4672 38.6527 34.4672Z" fill="white"/>
<path d="M41.5347 3.23779C45.2863 7.81484 45.3414 13.3984 43.4946 18.9464C41.8507 24.1602 38.9419 28.7398 38.2672 34.1918C38.1866 33.7189 38.0287 33.0966 38.0179 32.6091C37.9789 31.7619 38.0439 30.8846 38.164 30.0409C38.7524 26.0271 40.5334 22.1892 41.7456 18.4113C43.5754 12.9529 43.7782 8.47749 41.5347 3.23779Z" fill="#2864FF"/>
<path d="M36.2357 40.6516C36.2357 40.6516 28.3197 28.2985 19.342 32.2339C11.9418 35.4779 10.7518 38.2233 2.98033 36.317C5.79432 39.2606 12.0837 45.849 21.6078 44.8502C30.0911 43.9603 36.2357 40.6516 36.2357 40.6516Z" fill="white"/>
<path d="M2.85927 36.4302C6.88006 38.6749 11.6325 39.113 16.0199 38.0608C16.7907 37.9151 17.732 37.5888 18.4862 37.3725C24.3347 35.3115 31.7411 36.1076 36.2299 40.6591C31.1486 38.2332 25.1096 37.9054 19.8025 39.6112C19.5462 39.6915 19.0213 39.8453 18.7614 39.9178C18.5578 39.975 17.5645 40.2571 17.3817 40.3029C16.7349 40.4181 16.0455 40.5622 15.3954 40.6469C15.0023 40.6668 14.0504 40.7703 13.6659 40.7712C13.3793 40.7647 12.7944 40.7536 12.5071 40.7465C8.95064 40.5742 5.1981 39.1904 2.85927 36.4302Z" fill="#2864FF"/>
<path d="M104.7 23.24V47H103.584V27.182L103.674 25.688L103.26 27.182L96.06 46.136H94.908L87.708 27.182L87.312 25.688L87.402 27.182V47H86.268V23.24H87.42L95.34 44.264L95.484 44.894L95.628 44.264L103.584 23.24H104.7ZM115.213 45.74L121.027 32.222H122.287L112.477 54.488H111.235L114.547 47L108.517 32.222H109.795L115.213 45.74ZM140.627 35.66H126.533V47H125.435V23.24H126.533V34.508H140.627V23.24H141.707V47H140.627V35.66ZM147.088 39.512C147.088 40.676 147.304 41.78 147.736 42.824C148.168 43.856 148.828 44.696 149.716 45.344C150.604 45.992 151.726 46.316 153.082 46.316C154.174 46.316 155.068 46.13 155.764 45.758C156.472 45.386 157.024 44.954 157.42 44.462C157.828 43.958 158.11 43.52 158.266 43.148L159.328 43.868C158.848 44.648 158.314 45.308 157.726 45.848C157.138 46.376 156.46 46.772 155.692 47.036C154.936 47.3 154.048 47.432 153.028 47.432C151.48 47.432 150.172 47.072 149.104 46.352C148.036 45.62 147.226 44.648 146.674 43.436C146.134 42.212 145.864 40.874 145.864 39.422C145.864 37.982 146.14 36.686 146.692 35.534C147.256 34.382 148.066 33.47 149.122 32.798C150.19 32.126 151.474 31.79 152.974 31.79C154.306 31.79 155.464 32.102 156.448 32.726C157.444 33.338 158.218 34.178 158.77 35.246C159.322 36.314 159.598 37.532 159.598 38.9C159.598 39.008 159.592 39.116 159.58 39.224C159.568 39.32 159.562 39.416 159.562 39.512H147.088ZM158.32 38.36C158.296 37.58 158.116 36.77 157.78 35.93C157.456 35.09 156.91 34.382 156.142 33.806C155.374 33.218 154.318 32.924 152.974 32.924C151.558 32.924 150.436 33.206 149.608 33.77C148.792 34.334 148.198 35.036 147.826 35.876C147.466 36.716 147.25 37.544 147.178 38.36H158.32ZM175.815 47V43.724C175.743 44.06 175.461 44.528 174.969 45.128C174.489 45.716 173.817 46.25 172.953 46.73C172.089 47.198 171.063 47.432 169.875 47.432C168.567 47.432 167.343 47.132 166.203 46.532C165.075 45.932 164.163 45.05 163.467 43.886C162.771 42.722 162.423 41.3 162.423 39.62C162.423 37.94 162.771 36.518 163.467 35.354C164.163 34.19 165.075 33.308 166.203 32.708C167.343 32.096 168.567 31.79 169.875 31.79C171.063 31.79 172.089 32.024 172.953 32.492C173.829 32.948 174.513 33.47 175.005 34.058C175.509 34.646 175.779 35.132 175.815 35.516V32.222H176.931V47H175.815ZM163.575 39.62C163.575 41.012 163.875 42.206 164.475 43.202C165.075 44.198 165.849 44.96 166.797 45.488C167.745 46.016 168.735 46.28 169.767 46.28C170.907 46.28 171.927 46.01 172.827 45.47C173.727 44.93 174.435 44.162 174.951 43.166C175.479 42.17 175.743 40.988 175.743 39.62C175.743 38.252 175.479 37.07 174.951 36.074C174.435 35.078 173.727 34.31 172.827 33.77C171.927 33.218 170.907 32.942 169.767 32.942C168.735 32.942 167.745 33.212 166.797 33.752C165.849 34.28 165.075 35.042 164.475 36.038C163.875 37.034 163.575 38.228 163.575 39.62ZM183.12 47H181.932V22.232H183.12V47ZM187.188 32.222H190.41V26.156H191.562V32.222H195.774V33.374H191.562V43.364C191.562 44.456 191.766 45.218 192.174 45.65C192.582 46.07 193.062 46.28 193.614 46.28C194.178 46.28 194.598 46.184 194.874 45.992C195.15 45.8 195.312 45.674 195.36 45.614L196.062 46.568C196.002 46.628 195.87 46.73 195.666 46.874C195.462 47.018 195.186 47.144 194.838 47.252C194.502 47.372 194.082 47.432 193.578 47.432C192.702 47.432 191.952 47.138 191.328 46.55C190.716 45.95 190.41 44.984 190.41 43.652V33.374H187.188V32.222ZM206.132 31.79C207.032 31.79 207.914 31.988 208.778 32.384C209.642 32.78 210.35 33.41 210.902 34.274C211.466 35.126 211.748 36.236 211.748 37.604V47H210.56V37.982C210.56 36.17 210.14 34.88 209.3 34.112C208.46 33.332 207.392 32.942 206.096 32.942C205.232 32.942 204.398 33.194 203.594 33.698C202.79 34.202 202.124 34.886 201.596 35.75C201.08 36.614 200.822 37.58 200.822 38.648V47H199.616V22.232H200.822V35.246C200.894 34.814 201.17 34.328 201.65 33.788C202.142 33.248 202.778 32.78 203.558 32.384C204.338 31.988 205.196 31.79 206.132 31.79ZM217.377 23.24H218.529V47H217.377V23.24ZM230.81 47.432C229.502 47.432 228.302 47.132 227.21 46.532C226.13 45.932 225.266 45.05 224.618 43.886C223.97 42.722 223.646 41.3 223.646 39.62C223.646 37.94 223.97 36.518 224.618 35.354C225.266 34.19 226.13 33.308 227.21 32.708C228.302 32.096 229.502 31.79 230.81 31.79C232.01 31.79 233.066 32.018 233.978 32.474C234.89 32.918 235.61 33.434 236.138 34.022C236.666 34.61 236.948 35.108 236.984 35.516V22.232H238.19V47H237.038V43.724C237.002 44.084 236.72 44.558 236.192 45.146C235.664 45.734 234.938 46.262 234.014 46.73C233.09 47.198 232.022 47.432 230.81 47.432ZM230.702 46.28C231.842 46.28 232.886 46.01 233.834 45.47C234.794 44.93 235.556 44.162 236.12 43.166C236.696 42.17 236.984 40.988 236.984 39.62C236.984 38.252 236.696 37.07 236.12 36.074C235.556 35.078 234.794 34.31 233.834 33.77C232.886 33.218 231.842 32.942 230.702 32.942C229.682 32.942 228.722 33.212 227.822 33.752C226.934 34.28 226.214 35.042 225.662 36.038C225.11 37.034 224.834 38.228 224.834 39.62C224.834 41.012 225.11 42.206 225.662 43.202C226.214 44.198 226.934 44.96 227.822 45.488C228.722 46.016 229.682 46.28 230.702 46.28Z" fill="black"/>
</svg>
